<svg width="22" height="14" viewBox="0 0 22 14" fill="none" xmlns="http://www.w3.org/2000/svg">
<path d="M21.1026 0.115789L16.2105 3.27105V2.31579C16.2105 1.04211 15.1684 0 13.8947 0H2.31579C1.04211 0 0 1.04211 0 2.31579V11.5789C0 12.8526 1.04211 13.8947 2.31579 13.8947H13.8947C15.1684 13.8947 16.2105 12.8526 16.2105 11.5789V10.6237L21.1026 13.7789C21.6526 14.0684 22 13.5763 22 13.2868V0.578947C22 0.289474 21.6816 -0.231579 21.1026 0.115789ZM15.0526 11.5789C15.0526 12.2158 14.5316 12.7368 13.8947 12.7368H2.31579C1.67895 12.7368 1.15789 12.2158 1.15789 11.5789V2.31579C1.15789 1.67895 1.67895 1.15789 2.31579 1.15789H13.8947C14.5316 1.15789 15.0526 1.67895 15.0526 2.31579V11.5789ZM20.8421 12.2447L16.2105 9.26316V4.63158L20.8421 1.65V12.2447Z" fill="white"/>
</svg>
