<svg width="20" height="20" viewBox="0 0 20 20" fill="none" xmlns="http://www.w3.org/2000/svg">
<path d="M9.99984 19.9997C4.49775 19.9997 0 15.5019 0 9.99984C0 4.49775 4.49775 0 9.99984 0C15.5019 0 19.9997 4.49775 19.9997 9.99984C20.0434 15.5019 15.5456 19.9997 9.99984 19.9997ZM9.99984 1.04802C5.06542 1.04802 1.09169 5.06542 1.09169 9.95617C1.09169 14.8469 5.10909 18.8643 9.99984 18.8643C14.8906 18.8643 18.908 14.8469 18.908 9.95617C18.908 5.06542 14.9343 1.04802 9.99984 1.04802Z" fill="white"/>
<path d="M13.1439 15.1089L9.43213 11.3972V4.62874H10.6111V10.9168L13.9735 14.2792L13.1439 15.1089Z" fill="white"/>
</svg>
