<svg width="99" height="68" viewBox="0 0 99 68" fill="none" xmlns="http://www.w3.org/2000/svg">
<path fill-rule="evenodd" clip-rule="evenodd" d="M94.335 6.8675C91.6768 2.139 88.7919 1.26925 82.918 0.9385C77.0503 0.540375 62.2951 0.375 49.5122 0.375C36.7049 0.375 21.9436 0.540375 16.082 0.932375C10.2204 1.26925 7.32937 2.13287 4.64663 6.8675C1.90875 11.5899 0.5 19.7239 0.5 34.0441V34.0931C0.5 48.3521 1.90875 56.5474 4.64663 61.2207C7.32937 65.9492 10.2142 66.8068 16.0759 67.2049C21.9436 67.5479 36.7049 67.75 49.5122 67.75C62.2951 67.75 77.0502 67.5479 82.9241 67.211C88.798 66.8129 91.6829 65.9554 94.3411 61.2269C97.1035 56.5535 98.5 48.3582 98.5 34.0992V34.0503C98.5 19.7239 97.1035 11.5899 94.335 6.8675Z" fill="#F44336"/>
<path fill-rule="evenodd" clip-rule="evenodd" d="M37.25 52.4375V15.6875L67.875 34.0625L37.25 52.4375Z" fill="#FAFAFA"/>
</svg>
