<svg width="24" height="24" viewBox="0 0 24 24" fill="none" xmlns="http://www.w3.org/2000/svg">
<g clip-path="url(#clip0_21_27)">
<path opacity="0.9" d="M12.995 3C8.02 3 4 7.03 4 12H1L4.895 15.895L4.965 16.04L9 12H6C6 8.135 9.135 5 13 5C16.865 5 20 8.135 20 12C20 15.865 16.865 19 13 19C11.065 19 9.32 18.21 8.055 16.945L6.64 18.36C8.265 19.99 10.51 21 12.995 21C17.97 21 22 16.97 22 12C22 7.03 17.97 3 12.995 3ZM12 8V13L16.28 15.54L17 14.325L13.5 12.25V8H12Z" fill="white"/>
</g>
<defs>
<clipPath id="clip0_21_27">
<rect width="24" height="24" fill="white"/>
</clipPath>
</defs>
</svg>
